<svg xmlns="http://www.w3.org/2000/svg" xmlns:xlink="http://www.w3.org/1999/xlink" class="h-auto max-w-md mx-2 md:mx-auto" data-name="Layer 1" viewBox="0 0 1040 649">
  <defs>
    <linearGradient id="a" x1="722.8" x2="722.8" y1="71.8" y2="27.6" gradientUnits="userSpaceOnUse">
      <stop offset="0" stop-color="gray" stop-opacity=".3"/>
      <stop offset=".5" stop-color="gray" stop-opacity=".1"/>
      <stop offset="1" stop-color="gray" stop-opacity=".1"/>
    </linearGradient>
    <linearGradient xlink:href="#a" id="b" x1="885.7" x2="885.7" y1="728.4" y2="125.4"/>
  </defs>
  <rect width="103" height="41" x="160" y="408" fill="#afe34d" rx="8.8" ry="8.8"/>
  <rect width="103" height="41" x="263" y="408" fill="#afe34d" rx="8.8" ry="8.8"/>
  <rect width="103" height="41" x="263" y="408" opacity=".1" rx="8.8" ry="8.8"/>
  <rect width="103" height="41" x="366" y="408" fill="#afe34d" rx="8.8" ry="8.8"/>
  <rect width="103" height="41" x="469" y="408" fill="#afe34d" rx="8.8" ry="8.8"/>
  <rect width="103" height="41" x="469" y="408" opacity=".1" rx="8.8" ry="8.8"/>
  <rect width="103" height="41" x="572" y="408" fill="#afe34d" rx="8.8" ry="8.8"/>
  <rect width="103" height="41" x="675" y="408" fill="#afe34d" rx="8.8" ry="8.8"/>
  <rect width="103" height="41" x="675" y="408" opacity=".1" rx="8.8" ry="8.8"/>
  <rect width="103" height="41" x="755" y="493" fill="#afe34d" rx="8.8" ry="8.8" transform="rotate(-180 767 450)"/>
  <rect width="103" height="41" x="652" y="493" fill="#afe34d" rx="8.8" ry="8.8" transform="rotate(-180 664 450)"/>
  <rect width="103" height="41" x="652" y="493" opacity=".1" rx="8.8" ry="8.8" transform="rotate(-180 664 450)"/>
  <rect width="103" height="41" x="549" y="493" fill="#afe34d" rx="8.8" ry="8.8" transform="rotate(-180 561 450)"/>
  <rect width="103" height="41" x="446" y="493" fill="#afe34d" rx="8.8" ry="8.8" transform="rotate(-180 458 450)"/>
  <rect width="103" height="41" x="446" y="493" opacity=".1" rx="8.8" ry="8.8" transform="rotate(-180 458 450)"/>
  <rect width="103" height="41" x="343" y="493" fill="#afe34d" rx="8.8" ry="8.8" transform="rotate(-180 355 450)"/>
  <rect width="103" height="41" x="240" y="493" fill="#afe34d" rx="8.8" ry="8.8" transform="rotate(-180 252 450)"/>
  <rect width="103" height="41" x="240" y="493" opacity=".1" rx="8.8" ry="8.8" transform="rotate(-180 252 450)"/>
  <rect width="103" height="41" x="160" y="326" fill="#afe34d" rx="8.8" ry="8.8"/>
  <rect width="103" height="41" x="263" y="326" fill="#afe34d" rx="8.8" ry="8.8"/>
  <rect width="103" height="41" x="263" y="326" opacity=".1" rx="8.8" ry="8.8"/>
  <rect width="103" height="41" x="366" y="326" fill="#afe34d" rx="8.8" ry="8.8"/>
  <rect width="103" height="41" x="469" y="326" fill="#afe34d" rx="8.8" ry="8.8"/>
  <rect width="103" height="41" x="469" y="326" opacity=".1" rx="8.8" ry="8.8"/>
  <rect width="103" height="41" x="572" y="326" fill="#afe34d" rx="8.8" ry="8.8"/>
  <rect width="103" height="41" x="675" y="326" fill="#afe34d" rx="8.8" ry="8.8"/>
  <rect width="103" height="41" x="675" y="326" opacity=".1" rx="8.8" ry="8.8"/>
  <rect width="103" height="41" x="755" y="411" fill="#afe34d" rx="8.8" ry="8.8" transform="rotate(-180 767 368)"/>
  <rect width="103" height="41" x="652" y="411" fill="#afe34d" rx="8.8" ry="8.8" transform="rotate(-180 664 368)"/>
  <rect width="103" height="41" x="652" y="411" opacity=".1" rx="8.8" ry="8.8" transform="rotate(-180 664 368)"/>
  <rect width="103" height="41" x="549" y="411" fill="#afe34d" rx="8.8" ry="8.8" transform="rotate(-180 561 368)"/>
  <rect width="103" height="41" x="446" y="411" fill="#afe34d" rx="8.8" ry="8.8" transform="rotate(-180 458 368)"/>
  <rect width="103" height="41" x="446" y="411" opacity=".1" rx="8.8" ry="8.8" transform="rotate(-180 458 368)"/>
  <rect width="103" height="41" x="343" y="411" fill="#afe34d" rx="8.8" ry="8.8" transform="rotate(-180 355 368)"/>
  <rect width="103" height="41" x="240" y="411" fill="#afe34d" rx="8.8" ry="8.8" transform="rotate(-180 252 368)"/>
  <rect width="103" height="41" x="240" y="411" opacity=".1" rx="8.8" ry="8.8" transform="rotate(-180 252 368)"/>
  <rect width="103" height="41" x="160" y="246" fill="#afe34d" rx="8.8" ry="8.8"/>
  <rect width="103" height="41" x="263" y="246" fill="#afe34d" rx="8.8" ry="8.8"/>
  <rect width="103" height="41" x="263" y="246" opacity=".1" rx="8.8" ry="8.8"/>
  <rect width="103" height="41" x="366" y="246" fill="#afe34d" rx="8.8" ry="8.8"/>
  <rect width="103" height="41" x="469" y="246" fill="#afe34d" rx="8.8" ry="8.8"/>
  <rect width="103" height="41" x="469" y="246" opacity=".1" rx="8.8" ry="8.8"/>
  <rect width="103" height="41" x="572" y="246" fill="#afe34d" rx="8.8" ry="8.8"/>
  <rect width="103" height="41" x="675" y="246" fill="#afe34d" rx="8.8" ry="8.8"/>
  <rect width="103" height="41" x="675" y="246" opacity=".1" rx="8.8" ry="8.8"/>
  <rect width="103" height="41" x="755" y="331" fill="#afe34d" rx="8.8" ry="8.8" transform="rotate(-180 767 288)"/>
  <rect width="103" height="41" x="652" y="331" fill="#afe34d" rx="8.8" ry="8.8" transform="rotate(-180 664 288)"/>
  <rect width="103" height="41" x="652" y="331" opacity=".1" rx="8.8" ry="8.8" transform="rotate(-180 664 288)"/>
  <rect width="103" height="41" x="549" y="331" fill="#afe34d" rx="8.8" ry="8.8" transform="rotate(-180 561 288)"/>
  <rect width="103" height="41" x="446" y="331" fill="#afe34d" rx="8.8" ry="8.8" transform="rotate(-180 458 288)"/>
  <rect width="103" height="41" x="446" y="331" opacity=".1" rx="8.8" ry="8.8" transform="rotate(-180 458 288)"/>
  <rect width="103" height="41" x="343" y="331" fill="#afe34d" rx="8.8" ry="8.8" transform="rotate(-180 355 288)"/>
  <rect width="103" height="41" x="240" y="331" fill="#afe34d" rx="8.8" ry="8.8" transform="rotate(-180 252 288)"/>
  <rect width="103" height="41" x="240" y="331" opacity=".1" rx="8.8" ry="8.8" transform="rotate(-180 252 288)"/>
  <rect width="103" height="41" x="160" y="164" fill="#afe34d" rx="8.8" ry="8.8"/>
  <rect width="103" height="41" x="263" y="164" fill="#afe34d" rx="8.8" ry="8.8"/>
  <rect width="103" height="41" x="263" y="164" opacity=".1" rx="8.8" ry="8.8"/>
  <rect width="103" height="41" x="366" y="164" fill="#afe34d" rx="8.8" ry="8.8"/>
  <rect width="103" height="41" x="469" y="164" fill="#afe34d" rx="8.8" ry="8.8"/>
  <rect width="103" height="41" x="469" y="164" opacity=".1" rx="8.8" ry="8.8"/>
  <rect width="103" height="41" x="572" y="164" fill="#afe34d" rx="8.8" ry="8.8"/>
  <rect width="103" height="41" x="675" y="164" fill="#afe34d" rx="8.8" ry="8.8"/>
  <rect width="103" height="41" x="675" y="164" opacity=".1" rx="8.8" ry="8.8"/>
  <rect width="111" height="44.2" x="667" y="28" fill="url(#a)" rx="8.8" ry="8.8"/>
  <rect width="103" height="41" x="751" y="155" fill="#afe34d" rx="8.8" ry="8.8" transform="rotate(-180 763 112)"/>
  <rect width="103" height="41" x="652" y="249" fill="#afe34d" rx="8.8" ry="8.8" transform="rotate(-180 664 206)"/>
  <rect width="103" height="41" x="652" y="249" opacity=".1" rx="8.8" ry="8.8" transform="rotate(-180 664 206)"/>
  <rect width="103" height="41" x="549" y="249" fill="#afe34d" rx="8.8" ry="8.8" transform="rotate(-180 561 206)"/>
  <rect width="103" height="41" x="446" y="249" fill="#afe34d" rx="8.8" ry="8.8" transform="rotate(-180 458 206)"/>
  <rect width="103" height="41" x="446" y="249" opacity=".1" rx="8.8" ry="8.8" transform="rotate(-180 458 206)"/>
  <rect width="103" height="41" x="343" y="249" fill="#afe34d" rx="8.8" ry="8.8" transform="rotate(-180 355 206)"/>
  <rect width="103" height="41" x="240" y="249" fill="#afe34d" rx="8.8" ry="8.8" transform="rotate(-180 252 206)"/>
  <rect width="103" height="41" x="240" y="249" opacity=".1" rx="8.8" ry="8.8" transform="rotate(-180 252 206)"/>
  <ellipse cx="499" cy="535.7" fill="#f5f5f5" rx="499" ry="113.5"/>
  <path fill="none" stroke="#535461" stroke-miterlimit="10" stroke-width="2" d="M114 485s9-31-2-53a48 48 0 0 1-4-30 81 81 0 0 1 5-14"/>
  <path fill="#afe34d" d="M106 373c0 4 7 15 7 15s7-11 7-15a7 7 0 0 0-14 0zm-11 21c2 3 13 9 13 9s0-13-2-16a7 7 0 0 0-11 7zm0 35c4 2 16 1 16 1s-6-11-10-13a7 7 0 0 0-6 12zm7 27c3 2 15 3 15 3s-4-12-7-14a7 7 0 0 0-8 11zm21-53c-3 3-16 6-16 6s4-13 6-15a7 7 0 1 1 10 9zm7 32h-16s6-11 10-12a7 7 0 0 1 6 12zm2 31c-3 2-15 3-15 3s4-12 7-14a7 7 0 0 1 8 11zm465-154s33 33 14 82 32 130 32 130h-1a96 96 0 0 1-64-147c14-21 25-46 19-65z"/>
  <path d="M597 312s33 33 14 82 32 130 32 130h-1a96 96 0 0 1-64-147c14-21 25-46 19-65z" opacity=".2"/>
  <path fill="none" stroke="#535461" stroke-miterlimit="10" d="M597 312s19 41 0 74-3 125 46 138"/>
  <path fill="#afe34d" d="M538 445s38-6 41 28 73 38 73 38l-2 1c-57 37-111 24-103-26 3-18 3-36-9-41z"/>
  <path fill="#f5f5f5" d="M538 445s38-6 41 28 73 38 73 38l-2 1c-57 37-111 24-103-26 3-18 3-36-9-41z" opacity=".2"/>
  <path fill="none" stroke="#535461" stroke-miterlimit="10" d="M538 445s30 7 27 33 43 59 87 33"/>
  <path fill="#a8a8a8" d="M824 523s-56-11-71-26-81-41-89-22-100 81-37 92 149 15 167 8 30-52 30-52z"/>
  <path d="M627 560c63 12 149 15 167 8 14-6 24-33 28-46l2 1s-11 44-30 52-104 4-167-8c-18-3-23-10-21-20 1 6 8 11 21 13z" opacity=".2"/>
  <path fill="url(#b)" d="M1016 154a16 16 0 0 0-4-7c-15-13-39-9-58-18-4-2-8-4-13-3-7 1-13 8-18 5v1l4 12c1 5 3 10 6 14a36 36 0 0 0 9 61l1 1a43 43 0 0 1 3 9c-5 1-13 6-22 14l-16-1a54 54 0 0 1-30-10l-49-35a17 17 0 0 0-9 4c-7-6-12-13-11-17 0 0-23-43-32-21s16 44 16 44l15 19a83 83 0 0 0-1 11c19 21 85 41 85 41h10v1a35 35 0 0 0-1 8v2c0 34 5 139 5 139l3-1-1 9s-44 6-76 18-33 27-33 27v126c-9 5-24 11-32 8-8-4-12-1-13 3a4 4 0 0 0 0 1 3 3 0 0 0 0 1 3 3 0 0 0 1 1c3 3 71 30 87 26a11 11 0 0 0 1-1l1-1h1l1-1 1-1 1-1v-1c0-1 0 0 0 0l1-1v-1l1-1v-3l1-1v-7a86 86 0 0 0-2-18l4-107a587 587 0 0 0 61-3l3 52s0 33 11 49c10 13 21 71 24 87-4 8-12 18-26 18 0 0-26-2-25 5a5 5 0 0 0 1 1v1l1 1 1 1c14 12 93 14 93 14 0-4-1-22-5-36h1s-12-104-21-116c0 0-3-54 3-88l1-1c26-10 28-34 25-52l8 3v-2l-1-8a354 354 0 0 0-11-56 108 108 0 0 1-5-22 252 252 0 0 1-1-28 270 270 0 0 1 2-37l3-32a42 42 0 0 0 0-9c-2-7-8-11-14-13l-1-1v-8a7 7 0 0 0 5 1c3 0 5-3 7-5 9-11 19-23 22-37a81 81 0 0 0 2-19v-1a21 21 0 0 0-1-7z" transform="translate(-80 -125)"/>
  <path fill="#f7c4a7" d="M853 83s14 21 11 31 33 4 33 4 1-39 8-48-52 13-52 13zm-93 14s-29-24-28-33c0 0-22-42-30-21s15 43 15 43l28 37z"/>
  <path fill="#535461" d="M731 473s-27 17-38 12-15 3-12 6 68 29 83 25 7-36 7-36zm143 74s-7 27-29 27c0 0-34-3-21 9s89 14 89 14 0-41-14-50-25 0-25 0z"/>
  <path fill="#575988" d="m833 353 3 70s0 33 11 48 24 90 24 90h38s-11-101-20-113c0 0-4-89 10-109z"/>
  <path d="m833 353 3 70s0 33 11 48 24 90 24 90h38s-11-101-20-113c0 0-4-89 10-109z" opacity=".1"/>
  <path fill="#575988" d="M912 290s23 55-19 71-118 14-118 14l-4 116s-47 6-48-9V355s1-14 32-26 73-18 73-18l2-26z"/>
  <path d="M875 108a48 48 0 0 1 23 4c6 2 12 6 14 12 1 8-1 24-3 38a261 261 0 0 0-1 67 351 351 0 0 1 16 84c1-1-65-26-98-11 0 0-5-102-5-136-1-25 32-55 43-56l11-2z" opacity=".1"/>
  <path fill="#e14b5a" d="M875 106a48 48 0 0 1 23 4c6 2 12 6 14 12 1 8-1 24-3 38a261 261 0 0 0-1 67 108 108 0 0 0 5 20c4 14 12 63 12 63s-66-25-99-10c0 0-5-102-5-136-1-25 32-55 43-56l11-2z"/>
  <path d="m893 162-71-4s-5-35 5-35l71 2s15 19-5 37z" opacity=".1"/>
  <path fill="#e14b5a" d="m893 160-81-4s-63-19-81-40c0 0 1-37 21-39l47 34a51 51 0 0 0 28 10l70 2s15 19-5 37z"/>
  <path d="M896 88c1-9 5-13 9-17 7-9-52 13-52 13a106 106 0 0 1 8 15 36 36 0 0 0 15 3c8 0 14-9 20-14z" opacity=".1"/>
  <circle cx="875.5" cy="65.5" r="36" fill="#f7c4a7"/>
  <path d="M853 40c-4-4-6-10-8-15l-4-12c6 3 12-4 18-5 4-1 8 2 13 3 17 9 41 5 55 18a16 16 0 0 1 4 6 21 21 0 0 1 1 7 80 80 0 0 1-2 19c-3 14-12 25-21 36-2 2-4 5-6 5-6 1-10-4-12-9a99 99 0 0 1-5-20l-3-9c-3-5-10-10-15-14s-11-5-15-10z" opacity=".1"/>
  <path fill="#632652" d="M853 39c-4-4-6-10-8-15l-4-12c6 3 12-4 18-5 4-1 8 2 13 3 17 9 41 5 55 18a16 16 0 0 1 4 6 21 21 0 0 1 1 7 80 80 0 0 1-2 19c-3 14-12 25-21 36-2 2-4 5-6 5-6 1-10-4-12-9a99 99 0 0 1-5-20l-3-9c-3-5-10-10-15-14s-11-5-15-10z"/>
  <ellipse cx="885" cy="69.5" fill="#f7c4a7" rx="3" ry="6.5"/>
  <path d="M903 243s-2 6-12 5-39-3-39 0" opacity=".1"/>
  <path fill="#fff" d="M824 582c-2-2-3-3-3-5-1 2 0 3 3 6 13 12 89 14 89 14v-1c-1-1-77-3-89-14zm-60-67c-15 4-80-22-83-25a3 3 0 0 1-1-2 4 4 0 0 0 0 4c4 3 69 29 84 25 7-3 9-12 9-21 0 8-2 17-9 19z" opacity=".5"/>
  <path fill="#67647e" d="M502 504a2 2 0 0 0 0-3 2 2 0 0 0 0 3z"/>
  <path fill="#a8a8a8" d="M91 477s38-1 49-9 57-18 60-5 56 64 14 65-98-7-109-14-14-37-14-37z"/>
  <path d="M215 523c-42 0-98-6-109-13-9-6-12-24-13-33h-2s3 30 14 37 67 14 109 14c12-1 17-5 16-11-1 4-6 6-15 6z" opacity=".2"/>
  <rect width="103" height="41" x="1017" y="658" fill="#afe34d" rx="8.8" ry="8.8" transform="rotate(-180 1029 615)"/>
  <rect width="103" height="41" x="1017" y="658" opacity=".1" rx="8.8" ry="8.8" transform="rotate(-180 1029 615)"/>
  <rect width="103" height="41" x="937" y="493" fill="#afe34d" rx="8.8" ry="8.8"/>
  <rect width="103" height="41" x="1017" y="578" fill="#afe34d" rx="8.8" ry="8.8" transform="rotate(-180 1029 535)"/>
  <rect width="103" height="41" x="1017" y="578" opacity=".1" rx="8.8" ry="8.8" transform="rotate(-180 1029 535)"/>
  <rect width="103" height="41" x="937" y="411" fill="#afe34d" rx="8.8" ry="8.8"/>
</svg>