<svg xmlns="http://www.w3.org/2000/svg" data-name="Layer 1" viewBox="0 0 1006.79855 607.79019">
        <path fill="#57b894" d="M857.17669 407.01644a21.61922 21.61922 0 1 0-9.55588-40.44875l3.81914 10.46548-7.85758-7.54422a21.53764 21.53764 0 0 0-6.98389 14.922 21.19979 21.19979 0 0 0 .54809 5.95365 21.61509 21.61509 0 0 0 20.03012 16.65184Z"/>
        <path fill="none" stroke="#3f3d56" stroke-miterlimit="10" d="M920.35456 522.53001c-4.58322-8.48548.617-18.887 6.59456-26.4552s13.26293-15.44315 13.10818-25.086c-.22239-13.85853-14.93241-22.042-26.68538-29.38888a130.157 130.157 0 0 1-23.96136-19.266c-2.88553-2.94577-5.67507-6.09571-7.36281-9.85807-2.43054-5.41823-2.36293-11.58255-2.20966-17.519q.76587-29.664 2.93121-59.26982"/>
        <path fill="none" stroke="#3f3d56" stroke-miterlimit="10" d="M857.17669 404.01644a21.61922 21.61922 0 1 0-9.55588-40.44875l3.81914 10.46548-7.85758-7.54422a21.53764 21.53764 0 0 0-6.98389 14.922 21.19979 21.19979 0 0 0 .54809 5.95365 21.61509 21.61509 0 0 0 20.03012 16.65184Z"/>
        <path fill="#57b894" d="M860.42738 338.60642a21.594 21.594 0 0 1 10.79089-17.70958l4.83932 9.57363-.14581-11.5891a21.61655 21.61655 0 1 1-15.4844 19.72505Z"/>
        <path fill="none" stroke="#3f3d56" stroke-miterlimit="10" d="M860.42738 334.60642a21.594 21.594 0 0 1 10.79089-17.70958l4.83932 9.57363-.14581-11.5891a21.61655 21.61655 0 1 1-15.4844 19.72505Z"/>
        <path fill="#57b894" d="M909.81153 442.9309a21.61661 21.61661 0 0 0 6.85748-42.40329l.11228 8.90576-4.89363-9.68732a.3784.3784 0 0 0-.05874-.0036 21.6177709 21.6177709 0 1 0-2.01739 43.18845Z"/>
        <path fill="none" stroke="#3f3d56" stroke-miterlimit="10" d="M909.64553 438.9309a21.61662 21.61662 0 0 0 6.85748-42.40329l.11228 8.90576-4.89363-9.68732a.37848.37848 0 0 0-.05874-.0036 21.6177709 21.6177709 0 1 0-2.01739 43.18845Z"/>
        <path fill="#57b894" d="M898.97389 483.89519a21.60757 21.60757 0 1 0-1.04587-17.40273l13.50068 10.98572-14.85174-3.4422a21.41566 21.41566 0 0 0 2.39693 9.85921Z"/>
        <path fill="none" stroke="#3f3d56" stroke-miterlimit="10" d="M898.97389 480.89519a21.60757 21.60757 0 1 0-1.04587-17.40273l13.50068 10.98572-14.85174-3.4422a21.41566 21.41566 0 0 0 2.39693 9.85921Z"/>
        <path fill="#47465a" d="M734.07387 152.71415c2.60547 10.26017.62121 21.29428-3.789 30.91766s-11.10987 18.0112-18.20015 25.87171c-3.56743 3.955-7.4277 8.159-8.18454 13.43117-1.00907 7.02922 3.73081 13.39075 6.914 19.73864a48.49476 48.49476 0 0 1 4.97405 17.79952c.42764 5.32165-.23778 11.18655-3.96527 15.00867-3.59389 3.68513-9.11282 4.57694-14.23817 5.05335a181.98718 181.98718 0 0 1-42.372-1.024c3.93309-5.23105 2.45549-8.47645 2.08578-15.01071-.72527-12.81874-10.05412-24.42417-11.86569-37.135-1.44022-10.10529 5.24945-19.38224 11.57223-27.39557l28.9921-36.74387c4.804-6.08852 9.58877-12.35983 13.03848-19.34024 2.46523-4.98833 2.92767-14.3537 9.12945-16.01693 11.68582-3.13397 23.63613 15.89637 25.90873 24.8456Z"/>
        <path fill="#fbbebe" d="M591.79854 183.00015s-20 59-30 63 60 76 60 76l51-25 2-48-20-1s-3-20 7-30-70-35-70-35Z"/>
        <path d="M591.79854 183.00015s-20 59-30 63 60 76 60 76l51-25 2-48-20-1s-3-20 7-30-70-35-70-35Z" opacity=".1"/>
        <path fill="#afe34d" d="M614.79854 283.00015s-43-29-45-53c0 0-32 21-42 20s-37 5-37 9 25 117 25 117-18 48-9 63 14 85 14 85h208s-28-49-13-84 21-182 21-182-11-8-22-6-24-6-32-7-26.13006 3.0935-26.13006 3.0935Z"/>
        <path fill="#47465a" d="M1006.79854 522.9281v44.00031a29.43287 29.43287 0 0 1-29.06953 29.43063L51.91177 607.78888a16.90454 16.90454 0 0 1-17.11323-16.90325V542.2471a16.75607 16.75607 0 0 1 16.23917-16.7481l928.8457-28.66808a26.10966 26.10966 0 0 1 26.91513 26.09718Z"/>
        <path d="M1006.79854 555.00015v11.92826a29.43287 29.43287 0 0 1-29.06953 29.43063L51.91177 607.78888a16.90454 16.90454 0 0 1-17.11323-16.90325v-1.56547Z" opacity=".1"/>
        <path fill="#f2f2f2" d="m824.799 524-117.14-15.199-208.297 7.599 75.437 23.6 250-16z"/>
        <path fill="#9493b6" d="M513.799 517v12l-114 26-11.14-2.57-1.86-.43-82-44 209 9z"/>
        <path d="M513.799 517v12l-114 26-11.14-2.57-1.86-12.43 127-23z" opacity=".1"/>
        <path fill="#47465a" d="M382.79854 536.00015c2-1 44-9 44-9l-76-7Z"/>
        <circle cx="645.79855" cy="169.00015" r="65" fill="#fbbebe"/>
        <path fill="#fbbebe" d="M456.79854 463.00015s-58 25-72 18-56-25-69 12c-10.48372 29.83828 50.71651 31.71171 74.80112 31.319a20.12491 20.12491 0 0 0 15.19888-7.319l83.5-28.5s-18.5-31.5-32.5-25.5Z"/>
        <path fill="#47465a" d="m620.79854 417.00015 7 6-65 92s-10 1-7-4Z"/>
        <path fill="#47465a" d="m624.799 423 7-9-3-2-7 8 3 3z"/>
        <path fill="#afe34d" d="M506.29854 252.50015s-34 6-33 32-7.5 55.5-15.5 69.5-2 25 0 44-10 39-4 49-65 17-65 27 45 29 37 42c-5.7555 9.3527 34.81342-6.39778 58.03064-15.97195a40.52181 40.52181 0 0 0 24.32874-28.46555c.70312-3.1875.89062-6.0625.14062-8.0625-3-8 32.5-18.5 33.5-38.5s-5-40-10-60-25.5-112.5-25.5-112.5Z"/>
        <path fill="#7a799c" d="m10.77663 357.16083 293.23921 2.77513a10.66252 10.66252 0 0 1 9.59907 6.23487l79.02752 173.1502a10.66251 10.66251 0 0 1-10.06858 15.0833l-294.26851-10.1791a10.66252 10.66252 0 0 1-9.279-6.11607L1.02809 372.36293a10.66251 10.66251 0 0 1 9.74854-15.2021Z"/>
        <path fill="#fbbebe" d="M702.79854 463.00015s-58 25-72 18-56-25-69 12c-10.48372 29.83828 50.71651 31.71171 74.80112 31.319a20.12491 20.12491 0 0 0 15.19888-7.319l85-9s-20-51-34-45Z"/>
        <path d="M737.29854 273.50015s14.5-19.5 21.5-1.5 6 88 6 88 12 35 8 58 4 26 4 26 2 10-4 15-10 27-8 30-3 22-7 22-12.5-1.5-12.5-1.5-20.5-37.5-63.5-40.5c0 0 7-10 3-30s52.5-165.5 52.5-165.5Z" opacity=".1"/>
        <path fill="#afe34d" d="M734.79854 259.00015s16.5-6.5 23.5 11.5 13.5 89.5 13.5 89.5 12 35 8 58 4 26 4 26 2 10-4 15-10 27-8 30-3 22-7 22-41 6-41 6 8-45-35-48c0 0 7-10 3-30s43-180 43-180Z"/>
        <path fill="#47465a" d="M667.57286 77.27224a75.92951 75.92951 0 0 0-67.46159-6.51814c-11.77274 4.63061-22.17139 12.16993-31.897 20.26024-7.80181 6.49-15.41 13.57014-20.20323 22.51517-7.26746 13.56245-7.24628 29.70683-7.04942 45.09245.1714 13.39515.34574 26.83132 2.17125 40.10261 2.50383 18.20255 8.11312 36.224 6.825 54.55271s-12.05982 37.88387-30.0664 41.53967a241.32773 241.32773 0 0 0 50.23827-1.44707c10.4938-1.40621 21.50985-3.80941 29.18218-11.10548 5.60345-5.32865 8.77041-12.67516 11.52586-19.90016 2.76933-7.26143 5.30485-14.80735 5.20762-22.57832-.20232-16.16958-11.43019-29.733-18.75807-44.14819-2.0568-4.04609-3.86215-8.39615-3.79081-12.93445s2.44081-9.30261 6.65894-10.97847c5.20477-2.06786 11.23138 1.01676 16.64218-.42851 8.69367-2.32213 10.9501-14.39537 18.93186-18.55031 5.90575-3.07427 13.44349-.76909 18.40922 3.66606 2.22077 1.98348 4.12287 4.38082 6.69858 5.87472 3.49207 2.02539 7.73413 2.12379 11.77081 2.16842 7.53629.08333 33.259-11.72985 38.69041-16.955 5.2983 27.25281 44.698 3.53477 22.08694-36.673-7.87283-13.99972-18.31521-27.00239-32.20618-35.06555s-31.61447-10.564-46.19716-3.83207"/>
        <ellipse cx="600.29855" cy="184.50015" fill="#fbbebe" rx="9" ry="16"/>
        <path fill="#afe34d" d="M688.79854 246.51863s55.5 7.98152 58.5 11.98152-3 28-3 28l-40 7-30.77952-6.63779Z"/>
        <path d="M518.67936 285.67655c-8.35849-1.44072-16.51058 6.12423-20.83859 16.09811s-5.50335 21.92548-5.92886 33.53648c-.42291 11.54-.17279 23.3249 2.45488 34.29578 5.396 22.52918 19.88278 38.45728 28.26692 59.17266a116.03042 116.03042 0 0 1 7.61379 51.72057" opacity=".1"/>
        <path fill="#afe34d" d="M524.67936 285.67655c-8.35849-1.44072-16.51058 6.12423-20.83859 16.09811s-5.50335 21.92548-5.92886 33.53648c-.42291 11.54-.17279 23.3249 2.45488 34.29578 5.396 22.52918 19.88278 38.45728 28.26692 59.17266a116.03042 116.03042 0 0 1 7.61379 51.72057M846.099 509.119l96.738 38.695 60.462-10.883-5.273-43.278-.774-6.3-101.574-31.44-7.256 7.255-42.323 45.951z"/>
        <path d="M901.724 463.616v41.875l101.575 31.44-5.273-43.278-96.302-30.037z" opacity=".1"/>
        <path fill="#7a799c" d="m808.21871 518.16182 6.84676 2.53532 81.645 30.23726 6.34537 2.3491a1.33622 1.33622 0 0 0 1.21757-.14324l7.47692-5.01329 77.77755-52.18114 7.348-4.92735a1.35069 1.35069 0 0 0-.35809-2.41354l-11.71676-3.58809-82.36114-25.23114-7.19052-2.20586a1.34443 1.34443 0 0 0-1.153.17188l-5.665 3.81727-73.38017 49.41669-7.11166 4.79127a1.34955 1.34955 0 0 0 .27917 2.38486Z"/>
        <path fill="#f2f2f2" d="m976.67709 495.51857-72.8786 49.56506a2.6822 2.6822 0 0 1-2.42909.30228l-77.37013-28.2461a2.70644 2.70644 0 0 1-.547-4.80464l70.5397-46.03254a2.68217 2.68217 0 0 1 2.26081-.31621l79.709 24.71359a2.70612 2.70612 0 0 1 .71531 4.81856Z"/>
        <path fill="#afe34d" d="M984.80105 485.01685v10.929h4.7268l7.348-4.92735a1.35069 1.35069 0 0 0-.35809-2.41354Zm-88.09061 62.49425v3.42334l6.34537 2.3491a1.33622 1.33622 0 0 0 1.21757-.14324l7.47692-5.01329v-.61591Zm-88.49173-29.34928 6.84676 2.53532v-9.71145h-.01433l-7.11166 4.79127a1.34955 1.34955 0 0 0 .27923 2.38486Zm80.21256-56.59282h14.0086v-1.78329l-7.19052-2.20586a1.34443 1.34443 0 0 0-1.153.17188Z"/>
        <circle cx="857.79855" cy="485.00015" r="1" fill="#f2f2f2"/>
        <path fill="#f2f2f2" d="M34.66902 26h398v202h-398z"/>
        <path fill="#afe34d" d="M104.527 209.5 194.669 59l93.5 150.5"/>
        <path fill="#afe34d" d="m241.169 132.5 18-47 102 124h-120.5l.5-77zm-18.95103-18.67413a25.00091 25.00091 0 1 0-26.13562-42.62756"/>
        <path fill="none" stroke="#3f3d56" stroke-miterlimit="10" d="M58.16902.5h398v202h-398z"/>
        <path fill="none" stroke="#3f3d56" stroke-miterlimit="10" d="M109.527 202.5 199.669 52l93.5 150.5m-49-79 18-47 102 126"/>
        <path fill="none" stroke="#3f3d56" stroke-miterlimit="10" d="M229.21797 99.82587a25.00091 25.00091 0 1 0-26.13562-42.62756"/>
      </svg>